<?xml version="1.0" encoding="utf-8"?>
<!-- Generator: Adobe Illustrator 19.0.0, SVG Export Plug-In . SVG Version: 6.00 Build 0)  -->
<svg version="1.1" id="Layer_1" xmlns="http://www.w3.org/2000/svg" xmlns:xlink="http://www.w3.org/1999/xlink" x="0px" y="0px"
	 viewBox="0 0 100 100" style="enable-background:new 0 0 100 100;" xml:space="preserve">
<style type="text/css">
	.st0{fill:#FE9101;}
	.st1{fill:#FE641A;}
	.st2{opacity:0.72;fill:#FE641A;}
	.st3{opacity:0.69;fill:#FE641A;}
	.st4{opacity:0.72;fill:#FE9101;}
	.st5{opacity:0.69;fill:#FE9101;}
	.st6{fill:#33393F;}
	.st7{fill:#575F63;}
	.st8{fill:#5A6061;}
	.st9{fill:#353A3F;}
</style>
<path id="XMLID_157_" class="st0" d="M15.3,99c-0.6,0.1-1.1-0.2-1.6-0.4C10.1,96.8,6.6,95,3,93.2c-0.9-0.5-1.5-1.2-2-2
	c0-4.4,0-8.8,0-13.2c0.6-1.2,1.6-1.9,2.8-2.4c2.9-1.4,5.8-2.9,8.7-4.4c1-0.3,1.8-1,2.8-1l0,0.1c0,3.8,0,7.6,0,11.4
	c-1.2,0.1-2.1,0.6-2.6,1.7c-0.7,1.6,0.1,3.8,2.6,4.1C15.3,91.2,15.3,95.1,15.3,99z"/>
<path id="XMLID_156_" class="st1" d="M16.1,1.2c3.8,1.9,7.6,3.8,11.4,5.7c1.5,0.7,2.2,1.8,2.1,3.5c-0.1,3.4-0.1,6.8,0,10.2
	c0,1.8-0.7,2.9-2.2,3.6c-2.9,1.4-5.7,2.9-8.6,4.3c-0.2,0.1-0.5,0.3-0.7,0.4c-1,0.2-1.7,1.1-2.8,0.9c0-3.8,0-7.6,0-11.4
	c1.8-0.2,2.9-1.3,2.9-2.9c0-1.6-1.1-2.7-2.9-2.9c0-3.8,0-7.6,0-11.4C15.6,1.2,15.8,1.2,16.1,1.2z"/>
<path id="XMLID_155_" class="st0" d="M1,56.6c0-4.3,0-8.7,0-13c0.6-1.2,1.6-1.9,2.8-2.4c2.9-1.4,5.8-2.9,8.7-4.4c1-0.3,1.8-1,2.8-1
	c0,0,0,0.1,0,0.1c0,3.8,0,7.6,0,11.4c-1.2,0.1-2.1,0.6-2.6,1.7c-0.7,1.6,0.1,3.8,2.6,4.1c0,3.8,0,7.6,0,11.4l0,0.1
	c-1.1,0-1.9-0.7-2.8-1c-2.9-1.5-5.8-3-8.7-4.4C2.6,58.4,1.6,57.8,1,56.6z"/>
<path id="XMLID_154_" class="st0" d="M15.3,18.4c0,3.8,0,7.6,0,11.4c0,0,0,0.1,0,0.1c-1.1,0-1.9-0.7-2.8-1c-2.9-1.5-5.8-3-8.7-4.4
	C2.6,23.8,1.6,23.2,1,22c0-4.3,0-8.7,0-13c0.6-1.2,1.6-1.9,2.8-2.4C7.4,4.8,11,3,14.6,1.2c0.3,0,0.5,0,0.8,0c0,3.8,0,7.6,0,11.4
	l0,0.1c-1.7,0.1-2.8,1.2-2.9,2.8C12.4,17.1,13.6,18.2,15.3,18.4L15.3,18.4z"/>
<path id="XMLID_150_" class="st1" d="M67.1,6.9c9.4,0,18.8,0,28.3,0c0.5,0,1,0,1.5,0.2c1.3,0.5,2.1,1.6,1.9,3
	c-0.1,1.3-1.2,2.4-2.5,2.6c-0.3,0-0.6,0-1,0c-18.8,0-37.6,0-56.4,0c-0.4,0-0.8,0-1.2-0.1c-1.4-0.3-2.4-1.6-2.3-3
	c0.1-1.4,1.2-2.5,2.7-2.6c0.3,0,0.7,0,1,0C48.5,6.9,57.8,6.9,67.1,6.9z"/>
<path id="XMLID_149_" class="st2" d="M67.1,41.5c9.4,0,18.8,0,28.3,0c0.5,0,1,0,1.5,0.2c1.3,0.5,2.1,1.7,1.9,3
	c-0.1,1.3-1.2,2.4-2.5,2.6c-0.3,0-0.7,0-1,0c-18.7,0-37.5,0-56.2,0c-0.5,0-1.1,0-1.6-0.1c-1.3-0.5-2.1-1.7-2-3
	c0.1-1.3,1.2-2.4,2.6-2.5c0.3,0,0.7,0,1,0C48.4,41.5,57.8,41.5,67.1,41.5z"/>
<path id="XMLID_148_" class="st3" d="M67,81.6c-9.3,0-18.6,0-28,0c-0.3,0-0.6,0-1,0c-1.5-0.1-2.7-1.3-2.7-2.8c0-1.5,1.1-2.7,2.6-2.9
	c0.3,0,0.6,0,1,0c18.7,0,37.5,0,56.2,0c0.5,0,1.1,0,1.6,0.2c1.3,0.5,2.1,1.7,2,3c-0.2,1.3-1.2,2.4-2.6,2.5c-0.3,0-0.7,0-1,0
	C85.8,81.6,76.4,81.6,67,81.6z"/>
<path id="XMLID_147_" class="st1" d="M15.3,99c0-3.9,0-7.7,0-11.6c0,0,0-0.1,0-0.1c1.7,0,2.9-1.2,2.9-2.8c0-1.7-1.2-2.8-2.9-2.8
	l0-0.1c0-3.8,0-7.6,0-11.4c1.1-0.1,1.9,0.7,2.8,0.9c3,1.5,5.9,3.1,9,4.5c1.8,0.9,2.6,2,2.5,4.1c-0.1,3.5-0.1,6.9,0,10.4
	c0,1.4-0.6,2.3-1.7,2.9c-3.7,1.9-7.5,3.7-11.2,5.6C16.3,98.9,15.8,99.1,15.3,99z"/>
<path id="XMLID_146_" class="st1" d="M15.3,47.2c0-3.8,0-7.6,0-11.4c1.1-0.1,1.9,0.7,2.8,0.9c3,1.5,5.9,3.1,9,4.5
	c1.9,0.9,2.6,2.1,2.6,4.2c-0.1,3.3-0.1,6.6,0,9.9c0,1.6-0.7,2.6-2,3.3c-2.9,1.5-5.9,2.9-8.8,4.4c-0.2,0.1-0.4,0.3-0.6,0.4
	c-1,0.2-1.7,1.1-2.8,0.9c0-3.8,0-7.6,0-11.4l0-0.1c1.7,0,2.9-1.2,2.9-2.8C18.2,48.4,17,47.2,15.3,47.2L15.3,47.2z"/>
<path id="XMLID_145_" class="st0" d="M52.7,18.4c4.7,0,9.5,0,14.2,0c2.2,0,3.6,1.9,2.9,3.9c-0.5,1.2-1.4,1.8-2.6,1.9
	c-1.1,0-2.3,0-3.4,0c-8.1,0-16.2,0-24.2,0c-0.2,0-0.4,0-0.6,0c-2.2,0-3.5-1.1-3.5-2.9c0-1.8,1.3-2.8,3.5-2.8c4.1,0,8.2,0,12.3,0
	C51.7,18.4,52.2,18.4,52.7,18.4z"/>
<path id="XMLID_144_" class="st4" d="M52.8,52.9c4.7,0,9.4,0,14.1,0c2.2,0,3.6,1.9,2.9,3.9c-0.4,1.1-1.4,1.8-2.7,1.9
	c-1.5,0-3.1,0-4.6,0c-7.9,0-15.7,0-23.6,0c-0.4,0-0.8,0-1.1-0.1c-1.4-0.3-2.5-1.6-2.3-3c0.1-1.4,1.3-2.6,2.8-2.6c2.4,0,4.7,0,7.1,0
	C47.8,52.9,50.3,52.9,52.8,52.9z"/>
<path id="XMLID_143_" class="st5" d="M52.6,93.1c-4.7,0-9.4,0-14.1,0c-2.2,0-3.6-1.9-2.9-3.9c0.4-1.1,1.4-1.8,2.7-1.8
	c1.7,0,3.4,0,5.2,0c7.7,0,15.3,0,23,0c0.4,0,0.8,0,1.2,0.1c1.4,0.3,2.4,1.6,2.2,3c-0.1,1.4-1.3,2.6-2.8,2.6c-2.5,0-5,0-7.4,0
	C57.4,93.1,55,93.1,52.6,93.1z"/>
<path id="XMLID_142_" class="st6" d="M18.2,36.7c-1-0.2-1.7-1.1-2.8-0.9c0,0,0-0.1,0-0.1c0-2,0-3.9,0-5.9c0,0,0-0.1,0-0.1
	c1.1,0.1,1.9-0.7,2.8-0.9C18.2,31.5,18.2,34.1,18.2,36.7z"/>
<path id="XMLID_141_" class="st6" d="M15.3,64.4c1.1,0.1,1.9-0.7,2.8-0.9c0,2.6,0,5.1,0,7.7c-1-0.2-1.7-1.1-2.8-0.9c0,0,0-0.1,0-0.1
	C15.3,68.2,15.3,66.3,15.3,64.4L15.3,64.4z"/>
<path id="XMLID_140_" class="st7" d="M15.3,64.4c0,1.9,0,3.8,0,5.7c-1.1,0-1.9,0.7-2.8,1c0-2.6,0-5.2,0-7.8
	C13.4,63.7,14.3,64.4,15.3,64.4z"/>
<path id="XMLID_139_" class="st8" d="M15.3,87.4c-2.5-0.2-3.3-2.5-2.6-4.1c0.5-1.1,1.4-1.6,2.6-1.7c0,0,0,0.1,0,0.1
	C15.3,83.5,15.3,85.4,15.3,87.4L15.3,87.4z"/>
<path id="XMLID_138_" class="st9" d="M15.3,12.6c1.8,0.2,2.9,1.3,2.9,2.9c0,1.6-1.1,2.7-2.9,2.9c0,0,0-0.1,0-0.1
	C15.3,16.4,15.3,14.5,15.3,12.6L15.3,12.6z"/>
<path id="XMLID_137_" class="st7" d="M15.3,29.9c0,2,0,3.9,0,5.9c-1.1,0-1.9,0.7-2.8,1c0-2.7,0-5.3,0-8
	C13.4,29.1,14.3,29.8,15.3,29.9z"/>
<path id="XMLID_136_" class="st8" d="M15.3,53c-2.5-0.2-3.3-2.5-2.6-4.1c0.5-1.1,1.4-1.6,2.6-1.7c0,0,0,0.1,0,0.1
	C15.3,49.1,15.3,51,15.3,53L15.3,53z"/>
<path id="XMLID_135_" class="st8" d="M15.3,12.7c0,1.9,0,3.8,0,5.7c-1.7-0.1-2.9-1.2-2.9-2.9C12.5,13.8,13.6,12.7,15.3,12.7z"/>
<path id="XMLID_134_" class="st9" d="M15.3,87.3c0-1.9,0-3.8,0-5.7c1.7,0,2.9,1.2,2.9,2.8C18.2,86.1,17,87.3,15.3,87.3z"/>
<path id="XMLID_133_" class="st9" d="M15.3,52.9c0-1.9,0-3.8,0-5.7c1.7,0,2.9,1.2,2.9,2.8C18.2,51.7,17,52.9,15.3,52.9z"/>
</svg>
